<mxfile host="app.diagrams.net" agent="Mozilla/5.0 (Windows NT 10.0; Win64; x64) AppleWebKit/537.36 (KHTML, like Gecko) Chrome/134.0.0.0 Safari/537.36 Edg/134.0.0.0" version="26.2.4">
  <diagram name="Page-1" id="R35Uh8OowOJN967CsyXF">
    <mxGraphModel dx="862" dy="515" grid="1" gridSize="10" guides="1" tooltips="1" connect="1" arrows="1" fold="1" page="1" pageScale="1" pageWidth="850" pageHeight="1100" math="0" shadow="0">
      <root>
        <mxCell id="0" />
        <mxCell id="1" parent="0" />
        <mxCell id="zVVpgTbazU4pHSIgJahJ-1" value="Патник" style="shape=umlActor;verticalLabelPosition=bottom;verticalAlign=top;html=1;outlineConnect=0;" vertex="1" parent="1">
          <mxGeometry x="110" y="100" width="40" height="80" as="geometry" />
        </mxCell>
        <mxCell id="zVVpgTbazU4pHSIgJahJ-4" value="" style="rounded=1;whiteSpace=wrap;html=1;" vertex="1" parent="1">
          <mxGeometry x="200" y="30" width="380" height="540" as="geometry" />
        </mxCell>
        <mxCell id="zVVpgTbazU4pHSIgJahJ-5" value="Систем за резевација на патувања" style="text;html=1;align=center;verticalAlign=middle;whiteSpace=wrap;rounded=0;" vertex="1" parent="1">
          <mxGeometry x="290" y="40" width="200" height="30" as="geometry" />
        </mxCell>
        <mxCell id="zVVpgTbazU4pHSIgJahJ-6" value="Вработен во агенција" style="shape=umlActor;verticalLabelPosition=bottom;verticalAlign=top;html=1;outlineConnect=0;" vertex="1" parent="1">
          <mxGeometry x="630" y="110" width="40" height="80" as="geometry" />
        </mxCell>
        <mxCell id="zVVpgTbazU4pHSIgJahJ-10" value="Платежен систем" style="shape=umlActor;verticalLabelPosition=bottom;verticalAlign=top;html=1;outlineConnect=0;" vertex="1" parent="1">
          <mxGeometry x="630" y="300" width="40" height="80" as="geometry" />
        </mxCell>
        <mxCell id="zVVpgTbazU4pHSIgJahJ-17" value="" style="edgeStyle=orthogonalEdgeStyle;rounded=0;orthogonalLoop=1;jettySize=auto;html=1;" edge="1" parent="1" source="zVVpgTbazU4pHSIgJahJ-11" target="zVVpgTbazU4pHSIgJahJ-12">
          <mxGeometry relative="1" as="geometry" />
        </mxCell>
        <mxCell id="zVVpgTbazU4pHSIgJahJ-11" value="Преглед на понуди за патување" style="ellipse;whiteSpace=wrap;html=1;" vertex="1" parent="1">
          <mxGeometry x="220" y="115" width="90" height="50" as="geometry" />
        </mxCell>
        <mxCell id="zVVpgTbazU4pHSIgJahJ-18" value="" style="edgeStyle=orthogonalEdgeStyle;rounded=0;orthogonalLoop=1;jettySize=auto;html=1;" edge="1" parent="1" source="zVVpgTbazU4pHSIgJahJ-12" target="zVVpgTbazU4pHSIgJahJ-13">
          <mxGeometry relative="1" as="geometry" />
        </mxCell>
        <mxCell id="zVVpgTbazU4pHSIgJahJ-12" value="Избери туристичка агенција" style="ellipse;whiteSpace=wrap;html=1;" vertex="1" parent="1">
          <mxGeometry x="340" y="115" width="80" height="50" as="geometry" />
        </mxCell>
        <mxCell id="zVVpgTbazU4pHSIgJahJ-19" value="" style="edgeStyle=orthogonalEdgeStyle;rounded=0;orthogonalLoop=1;jettySize=auto;html=1;" edge="1" parent="1" source="zVVpgTbazU4pHSIgJahJ-13" target="zVVpgTbazU4pHSIgJahJ-16">
          <mxGeometry relative="1" as="geometry" />
        </mxCell>
        <mxCell id="zVVpgTbazU4pHSIgJahJ-13" value="Резервирај аражман" style="ellipse;whiteSpace=wrap;html=1;" vertex="1" parent="1">
          <mxGeometry x="320" y="210" width="85" height="60" as="geometry" />
        </mxCell>
        <mxCell id="zVVpgTbazU4pHSIgJahJ-16" value="Внеси лични податоци" style="ellipse;whiteSpace=wrap;html=1;" vertex="1" parent="1">
          <mxGeometry x="440" y="210" width="100" height="60" as="geometry" />
        </mxCell>
      </root>
    </mxGraphModel>
  </diagram>
</mxfile>
